<svg version="1.1" id="Layer_1" xmlns="http://www.w3.org/2000/svg" xmlns:xlink="http://www.w3.org/1999/xlink" x="0px" y="0px"
	 width="100%" viewBox="0 0 224 224" enable-background="new 0 0 224 224" xml:space="preserve">
<path fill="#000000" opacity="1.000000" stroke="none" 
	d="
M5.962434,89.973557 
	C8.034798,88.815086 8.064188,86.538918 8.382209,84.714203 
	C10.811825,70.773750 19.636658,60.029346 26.432362,48.289967 
	C27.922689,45.715466 30.458136,43.892700 33.405281,42.913620 
	C36.816376,48.359695 36.816376,48.359695 30.231941,54.773979 
	C28.670536,54.909374 29.739754,52.903690 28.063152,52.743244 
	C25.835953,54.129894 25.270945,57.069839 23.643480,59.249756 
	C24.835938,60.536587 26.437357,58.357258 27.575884,60.502541 
	C21.114651,74.759125 14.494589,89.388725 14.975762,105.907112 
	C17.863195,101.560394 15.885610,95.722977 19.415323,91.615158 
	C21.491117,91.930351 21.701752,93.352089 21.586267,94.658745 
	C20.957455,101.773438 21.754311,108.953102 20.400297,116.046585 
	C19.728565,119.565681 20.852072,122.651260 22.796413,125.885193 
	C25.938627,131.111496 28.395464,136.858032 29.049719,143.052322 
	C29.762802,149.803604 33.019958,155.721451 35.130768,161.976837 
	C36.972916,167.436005 42.619392,167.392578 46.494522,162.670532 
	C47.828815,161.044647 49.518459,159.710388 52.034355,157.293076 
	C50.541264,165.121201 46.201385,170.946075 46.482681,178.226501 
	C57.353832,148.480362 80.187157,134.658325 109.811440,129.397415 
	C106.081924,127.570618 102.377983,129.299042 98.787254,129.908447 
	C94.908806,130.566666 91.112862,131.674118 86.257538,131.836243 
	C90.237061,125.750511 86.526604,122.220894 83.431770,117.837044 
	C76.913704,108.604118 72.612022,98.435707 75.572983,86.642853 
	C76.447166,83.161133 73.611145,79.421700 76.359238,75.946724 
	C77.679893,77.722946 76.097733,80.346130 79.046974,82.451294 
	C79.464211,77.608696 82.235878,74.209213 83.896400,70.278030 
	C88.894646,58.445019 102.541725,49.904064 115.374504,50.714462 
	C130.260620,51.654530 141.334213,60.807247 145.216629,75.441330 
	C145.633286,77.011833 147.078735,78.297112 146.416565,80.534134 
	C143.559265,81.337059 140.370102,82.418404 142.891998,86.677368 
	C144.279602,87.826309 145.251358,85.611320 146.575836,86.218445 
	C147.565582,86.871193 147.653549,87.862854 147.461411,88.878204 
	C144.931839,102.246223 137.671539,115.302216 120.632950,119.569199 
	C120.191467,119.679749 119.839943,120.149544 118.842941,120.709068 
	C115.141655,120.015160 111.807465,121.335716 108.890518,120.535225 
	C94.379181,116.552872 83.863777,108.133301 79.911499,92.937103 
	C79.615570,91.799278 80.079239,90.095131 77.946480,90.012138 
	C76.510490,91.870117 77.373894,93.762199 77.867912,95.618202 
	C82.274597,112.174034 94.363586,119.656898 110.109848,122.537788 
	C113.038811,123.073647 116.447304,123.801392 118.990837,120.976929 
	C128.451340,121.510712 135.585541,115.802849 143.142197,111.557686 
	C145.233459,110.382866 146.408554,109.999832 148.550446,111.288017 
	C147.003540,117.692062 143.080490,122.751419 139.487518,128.643936 
	C141.078964,131.444275 146.120682,130.414703 148.316376,135.012344 
	C137.458771,133.204086 127.893433,127.592552 117.174461,129.499435 
	C120.799377,130.855148 124.662529,131.053177 128.387482,131.832382 
	C143.423935,134.977783 155.759689,143.010056 166.145737,153.704666 
	C173.354477,161.127579 177.598053,170.721039 180.239578,180.863937 
	C181.444107,185.489105 182.509171,185.484299 186.063766,182.384003 
	C199.042664,171.063782 205.003891,155.870789 210.005539,140.078369 
	C210.485870,138.561768 210.484039,137.162277 210.331085,135.116409 
	C212.253342,130.988907 213.345703,127.367592 211.548172,123.408730 
	C210.624557,127.223564 208.682632,130.877151 210.039474,135.027756 
	C207.295746,138.743317 207.701706,144.042984 204.211960,147.317657 
	C202.528839,146.894348 202.687988,145.804108 202.835892,144.847641 
	C204.837326,131.904892 202.538208,118.866768 203.330276,106.020958 
	C204.489670,87.217781 194.781433,73.499847 185.723022,58.914364 
	C179.560852,48.992268 170.560974,42.691387 161.536514,35.958843 
	C157.409134,32.879688 152.960434,29.975906 148.867874,26.908691 
	C143.275391,22.717358 135.696808,20.631226 128.134293,20.309866 
	C117.533981,19.859423 107.028786,21.033571 96.518631,21.981014 
	C90.247383,22.546337 83.999283,23.547262 77.000565,26.200520 
	C81.702705,18.870077 89.791122,20.399492 95.048599,16.418617 
	C80.146484,17.386583 67.372681,24.317423 54.895107,30.859034 
	C53.622696,30.090940 53.652637,29.459806 53.962833,28.802967 
	C54.237408,28.221575 54.572964,27.668982 55.336357,26.270708 
	C52.621658,27.721836 50.672005,28.764013 48.722347,29.806190 
	C48.448765,29.377937 48.175182,28.949684 47.901604,28.521429 
	C57.606911,20.688213 68.013954,13.910710 79.672058,8.895604 
	C71.450363,9.633480 64.495369,14.679262 56.488022,15.606054 
	C52.772549,10.852592 57.465244,6.195604 56.128777,1.288119 
	C94.020897,1.000000 132.041794,1.000000 170.622360,1.326310 
	C171.640869,3.258905 173.288803,3.682818 174.227692,4.726616 
	C176.406097,7.148440 179.448410,9.801260 178.780319,13.163808 
	C177.899918,17.594872 173.908966,18.949148 169.601913,17.111877 
	C167.924927,16.396517 166.362457,15.417563 164.716110,14.624534 
	C158.967712,11.855564 153.088257,9.463333 146.616730,8.393211 
	C182.606201,23.754274 208.809891,48.147320 220.163986,86.722954 
	C218.398193,71.463676 210.897064,58.776611 202.952850,45.897087 
	C206.780640,45.415272 207.693466,47.983509 209.397400,48.813602 
	C214.318375,47.922554 216.256439,44.175415 217.792923,40.023525 
	C221.747131,44.003399 217.757614,50.689907 223.293549,54.021122 
	C223.982422,52.397854 224.491211,51.198929 225.000000,50.000000 
	C225.000000,67.354225 225.000000,84.708458 224.715286,102.705795 
	C220.920868,106.787560 222.490982,111.189957 222.500351,115.124527 
	C222.544922,133.850815 218.150024,151.326447 207.641357,166.873459 
	C200.664200,177.195816 193.963394,187.646317 183.451477,195.347351 
	C175.312088,201.310272 167.865585,208.150681 158.520416,212.317551 
	C155.788437,213.535690 152.789551,213.875809 150.081711,215.308685 
	C141.952164,219.610519 132.593597,219.276901 123.580391,222.837555 
	C124.011169,217.064804 127.562576,217.879089 130.697388,217.282455 
	C133.746323,216.702118 137.495346,218.166183 140.247681,215.115784 
	C137.407791,212.886902 134.693451,216.239166 132.075653,214.255478 
	C132.769714,212.037811 134.603851,211.598053 136.527359,210.972656 
	C148.472626,207.088806 159.403137,201.267685 169.056320,193.206085 
	C171.753448,190.953644 173.866486,188.210770 170.078278,184.643738 
	C171.142914,172.737045 164.953842,163.984009 157.560867,156.704758 
	C148.879517,148.156937 137.928101,142.763885 125.661812,140.649582 
	C123.825195,140.333023 121.932220,139.669525 119.979027,141.932617 
	C129.374100,144.428864 138.131577,146.560272 146.210312,151.644302 
	C157.253235,158.593735 164.610245,167.620132 168.056305,180.006500 
	C168.544922,181.762817 168.571014,183.633881 169.883636,185.275696 
	C168.940323,193.206238 162.535324,194.611420 156.996994,196.989075 
	C157.007797,197.004059 157.033707,197.031021 157.204697,196.736877 
	C157.904404,195.801422 158.442001,195.167206 158.960495,194.517746 
	C165.182632,186.723785 164.937836,180.482361 158.467148,172.962601 
	C153.948868,167.711761 149.241455,162.629898 145.970810,156.349060 
	C143.998871,152.562195 139.849060,151.513000 135.773056,151.609879 
	C133.774673,151.657379 131.826355,151.767761 129.835693,151.448563 
	C121.510056,150.113510 112.958397,150.037399 104.974869,146.791779 
	C103.739265,146.289459 101.648956,147.320847 101.523033,145.021729 
	C101.425873,143.247665 103.022003,143.139511 104.346947,142.863129 
	C105.589203,142.603973 106.689857,141.996140 106.091377,140.484680 
	C105.516258,139.032227 104.322159,139.435211 103.125130,139.753799 
	C97.869087,141.152588 92.648903,142.507614 87.594147,144.691422 
	C74.148941,150.500153 63.989223,159.471725 58.693188,173.340546 
	C57.566086,176.292114 56.332127,179.429718 57.265762,182.799683 
	C60.102699,178.065887 60.788132,172.291412 65.060349,168.313416 
	C67.043716,170.386780 64.537071,171.872833 65.404991,173.447449 
	C65.953789,174.982040 67.652954,173.291306 68.503258,174.719208 
	C67.834557,179.264130 67.691193,184.066681 68.168503,188.868073 
	C68.552116,192.726913 70.327118,195.206070 74.438148,196.166794 
	C78.993874,197.231415 81.828018,201.010803 86.344208,203.989059 
	C81.914215,205.301331 79.349350,203.702515 76.729889,202.426010 
	C71.378922,199.818420 66.641945,196.059174 60.868805,193.697388 
	C59.379974,191.344177 58.448223,188.946136 55.876175,187.168427 
	C54.863888,192.132172 57.647556,193.294403 61.113693,194.309952 
	C62.117764,196.974365 64.127228,198.147980 66.124908,199.377930 
	C74.214806,204.358795 82.678864,208.472214 91.958031,210.748657 
	C93.220253,211.058319 94.643936,211.237915 94.771667,212.922867 
	C93.949539,214.745850 91.748146,214.266235 90.665321,215.551819 
	C92.426064,217.545334 96.037750,216.995758 97.233101,220.271759 
	C75.346321,218.023163 57.362671,208.675186 41.503139,194.266434 
	C25.614458,179.831192 14.861595,162.252029 7.414524,142.305634 
	C7.233132,154.145203 15.479032,163.170105 18.361250,174.713715 
	C11.534328,172.088882 6.975128,168.208115 4.520894,162.012726 
	C3.882926,160.402267 3.792176,158.110428 1.000000,159.000000 
	C1.000000,125.312439 1.000000,91.624878 1.000000,57.468658 
	C4.115460,60.122482 6.834562,59.537220 9.173532,56.068630 
	C10.343267,54.333958 11.740786,53.528542 13.955305,53.081474 
	C17.927319,52.279610 19.431610,48.105698 22.194187,45.585743 
	C23.974461,43.961826 25.311232,41.851707 26.948868,39.833679 
	C28.229635,41.591053 26.979225,42.360748 26.344284,43.157276 
	C18.172281,53.408920 12.793802,65.206558 7.941132,77.213196 
	C6.434814,80.940178 6.470580,85.290413 5.614667,89.898315 
	C3.465724,93.350868 3.604211,96.453537 4.225785,99.611198 
	C4.935341,96.398079 7.566115,93.487846 5.962434,89.973557 
M132.238541,67.257408 
	C123.599121,59.901409 113.900780,57.686295 103.212608,61.835274 
	C90.267624,66.860321 84.479134,82.170258 90.568199,96.643059 
	C94.152344,105.162041 101.018066,111.166206 110.493683,111.793556 
	C121.012825,112.489990 130.549179,108.764977 135.751144,99.077705 
	C141.504303,88.363968 140.126831,77.582428 132.238541,67.257408 
M206.139160,75.335190 
	C198.193100,59.360081 189.527588,44.118290 174.425507,33.335239 
	C159.868362,22.941267 143.396515,17.832100 126.447701,13.627048 
	C124.825340,13.224533 122.780960,13.331388 121.647141,15.968225 
	C171.401535,24.061871 201.724640,52.547173 211.981720,102.246048 
	C211.346039,93.019882 210.190735,84.246315 206.139160,75.335190 
M34.513786,175.010239 
	C35.888103,177.264740 37.368340,179.384766 41.758133,179.951736 
	C32.064266,168.158401 25.243336,155.857468 19.623104,142.853287 
	C18.969667,149.476013 26.594736,165.261017 34.513786,175.010239 
M213.856628,113.657875 
	C213.578552,112.388107 214.539734,110.620201 211.902405,109.863121 
	C211.246078,112.757942 210.728943,115.427910 212.035355,118.286972 
	C214.423782,117.482353 213.493362,115.708450 213.856628,113.657875 
M104.251610,16.490969 
	C105.104324,16.070353 106.549324,15.313947 105.082718,14.607808 
	C103.053871,13.630961 100.612877,13.434484 98.477814,15.374102 
	C100.317429,17.242735 102.015816,16.542583 104.251610,16.490969 
M110.735886,13.387573 
	C111.125298,16.400248 112.438797,16.654722 116.269142,14.403798 
	C114.970200,12.554965 113.047661,13.400435 110.735886,13.387573 
M18.230715,135.269760 
	C17.490143,134.237167 18.481848,132.145157 15.820167,131.909332 
	C16.217598,134.738297 15.846311,137.545486 18.155844,139.819443 
	C19.431124,138.376434 18.676554,137.137482 18.230715,135.269760 
M16.759489,122.508316 
	C16.332006,121.248985 15.280592,119.991722 14.674129,121.855789 
	C14.084909,123.666832 13.540317,126.186699 15.588686,128.060181 
	C17.285994,126.489357 16.552908,124.722252 16.759489,122.508316 
z"/>
<path fill="#000000" opacity="1.000000" stroke="none" 
	d="
M225.000000,25.531319 
	C224.216660,25.168446 223.243912,23.505682 222.679367,23.634321 
	C217.219254,24.878496 215.378815,20.554426 212.448242,17.602900 
	C210.231979,15.370746 207.114853,14.373896 204.035309,13.500671 
	C202.209412,12.982927 199.991104,13.072035 198.715302,10.944797 
	C200.114517,7.888517 201.534363,4.787179 202.977112,1.342921 
	C210.264359,1.000000 217.528717,1.000000 225.000000,1.000000 
	C225.000000,9.019698 225.000000,17.041170 225.000000,25.531319 
z"/>
<path fill="#000000" opacity="1.000000" stroke="none" 
	d="
M67.468651,225.000000 
	C64.799599,221.897522 61.322914,220.577179 58.321251,218.535034 
	C49.507854,212.538986 42.168297,204.946213 36.279743,195.807648 
	C39.257549,197.740082 42.396832,199.465744 45.183964,201.642334 
	C54.933998,209.256485 65.810471,215.021484 77.345360,218.997040 
	C82.170235,220.659958 86.248940,224.041290 91.711067,224.811218 
	C83.979103,225.000000 75.958199,225.000000 67.468651,225.000000 
z"/>
<path fill="#000000" opacity="1.000000" stroke="none" 
	d="
M225.000000,164.531342 
	C222.678772,163.803268 221.727173,165.536270 220.622543,167.015244 
	C219.378616,168.680710 218.632278,170.924347 216.082703,171.179794 
	C213.840302,166.224899 213.652710,161.486862 216.089249,156.506821 
	C220.113129,148.282501 220.975708,138.977646 224.772644,130.286530 
	C225.000000,141.354233 225.000000,152.708450 225.000000,164.531342 
z"/>
<path fill="#000000" opacity="1.000000" stroke="none" 
	d="
M133.468658,225.000000 
	C135.217606,222.421890 138.606094,222.438080 141.457077,221.513916 
	C149.753113,218.824646 158.370560,217.142639 165.753983,212.008621 
	C167.611816,210.716797 170.069366,209.669235 173.437881,210.777405 
	C169.080978,215.658478 162.908752,216.374405 158.180542,220.163147 
	C160.077713,220.999802 160.088562,222.960052 160.851349,224.820038 
	C151.979111,225.000000 142.958206,225.000000 133.468658,225.000000 
z"/>
<path fill="#000000" opacity="1.000000" stroke="none" 
	d="
M172.086731,155.744141 
	C172.273621,153.742401 173.406219,154.251617 174.105682,154.884033 
	C175.453308,156.102509 176.440536,157.752335 177.868576,158.841187 
	C179.847275,160.349915 179.345184,164.489365 182.391266,164.196335 
	C186.977173,163.755188 191.247772,162.112076 194.586395,158.404633 
	C197.162842,155.543579 198.622177,151.540283 202.949921,150.214874 
	C198.556015,161.559891 192.691986,171.929016 183.031250,181.656540 
	C180.202194,171.990570 177.872879,163.214355 172.086731,155.744141 
z"/>
<path fill="#000000" opacity="1.000000" stroke="none" 
	d="
M43.899574,55.670368 
	C42.162453,57.339809 40.444866,55.485298 38.504276,56.367973 
	C36.266434,62.752563 32.784943,68.660484 26.479147,72.448738 
	C33.171154,60.945896 39.952175,49.507652 50.826904,41.518776 
	C51.395611,48.500378 51.395611,48.500378 43.899574,55.670368 
z"/>
<path fill="#000000" opacity="1.000000" stroke="none" 
	d="
M61.603783,32.482819 
	C63.317318,30.414120 64.930809,28.878271 67.927475,29.427862 
	C66.251396,34.316578 62.039192,34.813816 58.240921,36.363358 
	C58.147926,33.814117 60.565800,34.028614 61.603783,32.482819 
z"/>
<path fill="#000000" opacity="1.000000" stroke="none" 
	d="
M76.110901,136.761658 
	C77.278130,133.396835 78.887062,132.564377 83.934662,132.708466 
	C82.110107,135.701035 78.859505,135.589798 76.110901,136.761658 
z"/>
<path fill="#000000" opacity="1.000000" stroke="none" 
	d="
M153.093750,88.628288 
	C153.133408,90.954613 152.916611,92.865860 151.523010,94.465530 
	C149.482620,91.207565 149.502762,90.791039 151.884750,86.495918 
	C153.018387,86.599922 152.928253,87.524025 153.093750,88.628288 
z"/>
<path fill="#000000" opacity="1.000000" stroke="none" 
	d="
M152.847992,80.095901 
	C152.392288,81.280663 151.429855,82.726532 150.951584,81.436615 
	C150.131210,79.223961 149.145325,76.605362 150.878983,73.774155 
	C152.918137,75.613373 153.020462,77.654526 152.847992,80.095901 
z"/>
<path fill="#000000" opacity="1.000000" stroke="none" 
	d="
M156.996994,196.989075 
	C152.256989,202.872543 145.168610,204.668823 138.588547,207.069122 
	C133.973755,208.752548 128.896072,209.137329 124.060936,210.256744 
	C120.703476,211.034088 118.989105,208.713257 116.075851,206.590698 
	C121.883072,203.937668 127.396645,202.593094 132.855530,201.132156 
	C135.568878,200.405991 138.346893,199.922470 141.091827,199.311951 
	C141.410233,199.241119 141.872299,198.861954 141.985168,198.957977 
	C147.464218,203.618637 151.433746,197.053192 156.651703,197.044342 
	C157.033707,197.031021 157.007797,197.004059 156.996994,196.989075 
z"/>
<path fill="#000000" opacity="1.000000" stroke="none" 
	d="
M98.677063,205.203430 
	C101.239731,203.952545 102.170586,205.178284 102.182861,207.166580 
	C102.194527,209.057007 100.904884,209.461288 99.101181,209.385773 
	C95.771431,209.246353 92.779381,208.327271 89.499840,206.512405 
	C92.596062,204.091721 95.780960,207.105927 98.677063,205.203430 
z"/>
<path fill="#000000" opacity="1.000000" stroke="none" 
	d="
M70.216003,160.590820 
	C71.161652,159.987488 71.926414,159.441910 72.695023,160.002823 
	C73.562706,160.636017 73.197540,161.536560 72.641869,162.143677 
	C71.358482,163.545853 70.017006,164.930786 67.784546,165.442612 
	C67.064430,162.903030 68.805412,161.976730 70.216003,160.590820 
z"/>
<path fill="#000000" opacity="1.000000" stroke="none" 
	d="
M125.309692,72.820740 
	C121.474007,71.910515 117.948471,70.888649 114.350784,70.339401 
	C110.809708,69.798798 107.309677,70.550339 104.363380,72.635048 
	C99.048569,76.395645 96.107986,94.819519 99.713478,100.205933 
	C101.050903,102.203987 103.089058,102.754295 105.074570,103.577103 
	C106.933731,104.347549 109.362907,104.362740 110.176147,106.923950 
	C104.639381,108.327614 96.694229,103.983490 93.752975,97.582047 
	C89.251152,87.784103 90.886742,75.054642 96.993858,69.189407 
	C106.935127,59.641891 120.281700,61.804909 127.732140,67.033058 
	C135.785065,72.683968 138.645554,86.320923 134.246567,95.510818 
	C130.545959,103.241745 122.472076,108.278198 115.996483,106.881935 
	C115.791031,105.467133 116.908844,105.228508 117.827339,104.991608 
	C126.396591,102.781380 129.901749,96.029312 132.474808,88.540398 
	C133.179428,86.489632 133.321594,84.156654 131.456879,82.480293 
	C128.536240,79.854675 127.310974,76.245041 125.309692,72.820740 
z"/>
</svg>
