<svg version="1.1" id="Layer_1" xmlns="http://www.w3.org/2000/svg" xmlns:xlink="http://www.w3.org/1999/xlink" x="0px" y="0px"
	 width="100%" viewBox="0 0 352 352" enable-background="new 0 0 352 352" xml:space="preserve">
<path fill="#000000" opacity="1.000000" stroke="none" 
	d="
M48.197655,299.543335 
	C43.312759,286.882111 45.503853,275.878479 54.742008,266.549866 
	C74.555847,246.542023 94.574501,226.736893 114.365944,206.707138 
	C117.186813,203.852295 119.159889,203.671783 121.555084,206.797501 
	C123.893005,209.848480 126.138725,209.817032 128.857788,206.956360 
	C134.709534,200.799850 140.688690,194.754074 146.834137,188.891998 
	C149.428146,186.417618 149.165833,184.439987 147.574188,181.531631 
	C127.246223,144.386734 132.639862,101.790543 162.618866,72.107758 
	C184.936386,50.010746 212.461868,41.816002 243.420746,47.794502 
	C282.433838,55.328354 311.214630,85.758675 315.951202,125.097992 
	C322.457092,179.132416 283.492950,221.479874 236.043594,226.483261 
	C216.655945,228.527634 198.583023,224.824326 181.689316,215.390915 
	C177.913147,213.282303 175.627701,213.725571 172.685577,216.716980 
	C166.047821,223.465973 159.032654,229.843781 152.753906,235.818008 
	C153.149414,237.597961 153.119415,237.999512 153.304855,238.219574 
	C158.974319,244.947876 159.093292,245.059891 152.834442,251.368835 
	C133.833313,270.522003 114.905617,289.753204 95.618263,308.615509 
	C80.720146,323.185272 57.360798,318.663818 48.197655,299.543335 
M158.489471,110.998550 
	C155.340271,119.348793 153.969223,127.984245 153.936493,136.908920 
	C153.771484,181.911240 196.180252,216.749756 240.072678,207.599503 
	C279.413757,199.398056 304.946838,161.707581 297.387665,122.994370 
	C291.315643,91.897354 264.799957,67.654457 233.295044,64.395462 
	C201.476730,61.104050 170.977432,79.896690 158.489471,110.998550 
z"/>
<path fill="#000000" opacity="1.000000" stroke="none" 
	d="
M190.631012,81.556412 
	C200.514084,75.182625 211.100800,72.145287 222.370621,71.225395 
	C223.032364,71.171387 223.698196,71.066452 224.357117,71.096161 
	C227.415344,71.234039 230.134537,72.085182 230.426270,75.662552 
	C230.725281,79.329491 228.124313,80.732803 225.065048,80.867691 
	C218.533783,81.155663 212.239822,82.240219 206.122574,84.644852 
	C194.072617,89.381561 184.824371,97.335899 178.131775,108.351326 
	C177.700500,109.061165 177.323059,109.804100 176.883087,110.508209 
	C175.241898,113.134689 172.817520,114.209068 170.083130,112.780716 
	C167.200684,111.275009 167.117538,108.539551 168.502701,105.873337 
	C173.665283,95.936150 180.993042,87.930672 190.631012,81.556412 
z"/>
</svg>