<svg version="1.1" id="Layer_1" xmlns="http://www.w3.org/2000/svg" xmlns:xlink="http://www.w3.org/1999/xlink" x="0px" y="0px"
	 width="100%" viewBox="0 0 820 706" enable-background="new 0 0 820 706" xml:space="preserve">
<path fill="#F5F5F5" opacity="1.000000" stroke="none" 
	d="
M475.000000,707.000000 
	C316.666656,707.000000 158.833328,707.000000 1.000000,707.000000 
	C1.000000,471.666656 1.000000,236.333328 1.000000,1.000000 
	C274.333344,1.000000 547.666687,1.000000 821.000000,1.000000 
	C821.000000,236.333328 821.000000,471.666656 821.000000,707.000000 
	C705.833313,707.000000 590.666687,707.000000 475.000000,707.000000 
M583.597290,648.846741 
	C599.594910,674.301819 622.615234,688.589844 652.539307,690.705444 
	C688.992249,693.282776 722.980286,671.477356 737.299988,637.244324 
	C751.603210,603.050659 742.781189,562.554810 715.802734,538.245728 
	C698.698730,522.834045 678.614258,515.292542 655.663391,515.286621 
	C583.839661,515.267883 512.015991,515.279602 440.192291,515.279541 
	C407.363373,515.279480 374.534149,515.215698 341.705933,515.367737 
	C337.990601,515.384949 336.117767,514.460022 334.854584,510.783875 
	C331.611359,501.345673 327.865173,492.080688 324.340851,482.738586 
	C323.182404,479.667816 322.087921,476.572968 320.745636,472.889435 
	C323.539154,472.889435 325.672272,472.889435 327.805389,472.889435 
	C451.288788,472.889435 574.772217,472.892883 698.255615,472.884918 
	C713.527893,472.883911 724.056152,465.314026 728.506531,450.865906 
	C755.456970,363.372589 782.383606,275.871857 809.162903,188.326141 
	C810.392883,184.304947 810.948853,179.723740 810.421509,175.581192 
	C808.337708,159.210953 796.229248,149.063065 779.508301,149.062683 
	C587.867371,149.058426 396.226410,149.037872 204.585587,149.185898 
	C199.739487,149.189651 197.724075,147.612228 196.115692,143.260345 
	C186.306473,116.719048 176.221024,90.279816 166.219223,63.809750 
	C160.570206,48.859493 150.922806,42.146912 135.123169,42.146893 
	C104.293976,42.146851 73.464050,42.043636 42.636436,42.264187 
	C38.267082,42.295444 33.612740,43.204918 29.600430,44.909012 
	C16.807594,50.342331 9.911592,64.173004 12.634921,77.716240 
	C15.528601,92.106636 26.856695,101.951599 41.446484,102.080719 
	C64.941498,102.288658 88.440422,102.236794 111.935738,102.049736 
	C115.838554,102.018677 117.657646,103.017990 119.102562,106.868225 
	C147.121155,181.528519 175.322723,256.120148 203.482788,330.727356 
	C227.351181,393.964264 251.213135,457.203583 275.085541,520.438965 
	C276.026001,522.930054 277.188873,524.819763 273.667206,526.954041 
	C243.916153,544.984314 229.358948,571.600525 229.799515,606.359070 
	C230.361389,650.686951 267.772552,689.104919 311.954773,690.831909 
	C368.873657,693.056824 412.454315,641.654114 401.107208,585.665039 
	C400.430420,582.325439 399.648041,579.007263 398.903198,575.626343 
	C457.835846,575.626343 516.245667,575.626343 575.169373,575.626343 
	C567.581970,601.207825 570.108093,625.340637 583.597290,648.846741 
z"/>
<path fill="#020202" opacity="1.000000" stroke="none" 
	d="
M583.405884,648.533569 
	C570.108093,625.340637 567.581970,601.207825 575.169373,575.626343 
	C516.245667,575.626343 457.835846,575.626343 398.903198,575.626343 
	C399.648041,579.007263 400.430420,582.325439 401.107208,585.665039 
	C412.454315,641.654114 368.873657,693.056824 311.954773,690.831909 
	C267.772552,689.104919 230.361389,650.686951 229.799515,606.359070 
	C229.358948,571.600525 243.916153,544.984314 273.667206,526.954041 
	C277.188873,524.819763 276.026001,522.930054 275.085541,520.438965 
	C251.213135,457.203583 227.351181,393.964264 203.482788,330.727356 
	C175.322723,256.120148 147.121155,181.528519 119.102562,106.868225 
	C117.657646,103.017990 115.838554,102.018677 111.935738,102.049736 
	C88.440422,102.236794 64.941498,102.288658 41.446484,102.080719 
	C26.856695,101.951599 15.528601,92.106636 12.634921,77.716240 
	C9.911592,64.173004 16.807594,50.342331 29.600430,44.909012 
	C33.612740,43.204918 38.267082,42.295444 42.636436,42.264187 
	C73.464050,42.043636 104.293976,42.146851 135.123169,42.146893 
	C150.922806,42.146912 160.570206,48.859493 166.219223,63.809750 
	C176.221024,90.279816 186.306473,116.719048 196.115692,143.260345 
	C197.724075,147.612228 199.739487,149.189651 204.585587,149.185898 
	C396.226410,149.037872 587.867371,149.058426 779.508301,149.062683 
	C796.229248,149.063065 808.337708,159.210953 810.421509,175.581192 
	C810.948853,179.723740 810.392883,184.304947 809.162903,188.326141 
	C782.383606,275.871857 755.456970,363.372589 728.506531,450.865906 
	C724.056152,465.314026 713.527893,472.883911 698.255615,472.884918 
	C574.772217,472.892883 451.288788,472.889435 327.805389,472.889435 
	C325.672272,472.889435 323.539154,472.889435 320.745636,472.889435 
	C322.087921,476.572968 323.182404,479.667816 324.340851,482.738586 
	C327.865173,492.080688 331.611359,501.345673 334.854584,510.783875 
	C336.117767,514.460022 337.990601,515.384949 341.705933,515.367737 
	C374.534149,515.215698 407.363373,515.279480 440.192291,515.279541 
	C512.015991,515.279602 583.839661,515.267883 655.663391,515.286621 
	C678.614258,515.292542 698.698730,522.834045 715.802734,538.245728 
	C742.781189,562.554810 751.603210,603.050659 737.299988,637.244324 
	C722.980286,671.477356 688.992249,693.282776 652.539307,690.705444 
	C622.615234,688.589844 599.594910,674.301819 583.405884,648.533569 
M391.174683,275.235138 
	C389.496765,253.242203 387.818817,231.249252 386.143097,209.285126 
	C330.954010,209.285126 276.412964,209.285126 221.533432,209.285126 
	C221.773468,210.357498 221.856583,211.167145 222.133713,211.903793 
	C232.854385,240.401138 243.658875,268.867340 254.239944,297.416351 
	C255.474457,300.747223 257.442566,300.940582 260.304718,300.936737 
	C302.936768,300.879120 345.568939,300.896698 388.201080,300.896576 
	C389.655426,300.896576 391.109802,300.896576 393.195404,300.896576 
	C392.510101,292.300079 391.866791,284.230377 391.174683,275.235138 
M740.265442,210.176987 
	C738.658936,209.800873 737.052795,209.098083 735.445801,209.096115 
	C687.804565,209.037689 640.163269,209.048782 592.521973,209.048874 
	C590.904724,209.048874 589.287415,209.048859 587.290222,209.048859 
	C584.928528,239.805161 582.604126,270.075684 580.266235,300.522125 
	C581.559204,300.707001 582.189697,300.875824 582.820251,300.876068 
	C624.964417,300.891785 667.108765,300.851929 709.252563,300.980682 
	C712.453796,300.990479 713.104248,299.331696 713.821106,296.981445 
	C722.559448,268.331451 731.334656,239.692719 740.265442,210.176987 
M461.500000,209.048355 
	C446.425446,209.048355 431.350891,209.048355 415.949951,209.048355 
	C418.349854,240.131516 420.687042,270.402435 423.017395,300.584869 
	C465.880859,300.584869 507.940430,300.584869 550.441589,300.584869 
	C552.795654,270.032898 555.128174,239.759369 557.494507,209.048355 
	C525.402466,209.048355 493.951233,209.048355 461.500000,209.048355 
M542.505066,403.977814 
	C544.346863,379.826569 546.188721,355.675323 548.045715,331.325256 
	C506.871674,331.325256 466.471191,331.325256 425.461243,331.325256 
	C427.556732,358.651459 429.625397,385.627625 431.692383,412.581909 
	C468.650635,412.581909 505.055817,412.581909 541.669495,412.581909 
	C541.923218,409.812408 542.148987,407.348145 542.505066,403.977814 
M275.115326,352.418121 
	C282.174622,371.079681 289.301697,389.716125 296.228180,408.426819 
	C297.417786,411.640289 298.808838,413.037140 302.549835,413.015381 
	C334.016602,412.832306 365.484894,412.910919 396.952728,412.910828 
	C398.515503,412.910828 400.078278,412.910889 401.869110,412.910889 
	C401.719086,410.564178 401.642334,409.078308 401.526550,407.595428 
	C399.674561,383.876678 397.689850,360.166992 396.079346,336.431915 
	C395.788788,332.150269 394.691101,330.895142 390.299194,330.915680 
	C351.173370,331.098785 312.046326,331.022552 272.919647,331.022766 
	C271.304535,331.022766 269.689392,331.022766 267.103455,331.022766 
	C269.876373,338.402954 272.370453,345.040924 275.115326,352.418121 
M573.906189,382.433319 
	C573.172729,392.468964 572.439270,402.504639 571.678772,412.910004 
	C573.769165,412.910004 575.075378,412.909973 576.381592,412.909973 
	C608.702087,412.910187 641.023071,412.827667 673.342468,413.016876 
	C677.326111,413.040192 678.723999,411.595306 679.786621,408.059357 
	C687.070618,383.821655 694.562866,359.646637 701.965088,335.444366 
	C702.367737,334.127655 702.563782,332.747772 702.856812,331.393433 
	C660.938538,331.393433 619.541870,331.393433 577.906189,331.393433 
	C576.593933,348.331085 575.308838,364.918762 573.906189,382.433319 
M649.940979,629.768616 
	C650.751160,629.959106 651.557068,630.170471 652.372192,630.336853 
	C662.947449,632.495544 673.908508,627.894897 680.140259,618.688599 
	C686.394165,609.449585 686.516602,597.365601 680.450378,588.073425 
	C674.299744,578.652222 663.607910,573.906311 652.938110,575.861328 
	C640.698120,578.103943 631.513123,588.043762 630.221069,600.445007 
	C628.911560,613.013794 636.377686,624.466736 649.940979,629.768616 
M302.570496,627.060120 
	C303.915070,627.712708 305.224335,628.454285 306.609833,629.003784 
	C317.058258,633.147400 329.193329,630.130188 336.574066,621.592651 
	C344.447632,612.485046 345.814575,599.825256 340.041473,589.479004 
	C334.433624,579.428894 322.898651,573.851501 311.818359,575.832458 
	C300.605011,577.837280 292.070404,586.056702 289.476746,597.349060 
	C286.957672,608.316772 291.626404,619.309570 302.570496,627.060120 
z"/>
<path fill="#F4F4F4" opacity="1.000000" stroke="none" 
	d="
M391.199097,275.697937 
	C391.866791,284.230377 392.510101,292.300079 393.195404,300.896576 
	C391.109802,300.896576 389.655426,300.896576 388.201080,300.896576 
	C345.568939,300.896698 302.936768,300.879120 260.304718,300.936737 
	C257.442566,300.940582 255.474457,300.747223 254.239944,297.416351 
	C243.658875,268.867340 232.854385,240.401138 222.133713,211.903793 
	C221.856583,211.167145 221.773468,210.357498 221.533432,209.285126 
	C276.412964,209.285126 330.954010,209.285126 386.143097,209.285126 
	C387.818817,231.249252 389.496765,253.242203 391.199097,275.697937 
z"/>
<path fill="#F4F4F4" opacity="1.000000" stroke="none" 
	d="
M740.182861,210.614014 
	C731.334656,239.692719 722.559448,268.331451 713.821106,296.981445 
	C713.104248,299.331696 712.453796,300.990479 709.252563,300.980682 
	C667.108765,300.851929 624.964417,300.891785 582.820251,300.876068 
	C582.189697,300.875824 581.559204,300.707001 580.266235,300.522125 
	C582.604126,270.075684 584.928528,239.805161 587.290222,209.048859 
	C589.287415,209.048859 590.904724,209.048874 592.521973,209.048874 
	C640.163269,209.048782 687.804565,209.037689 735.445801,209.096115 
	C737.052795,209.098083 738.658936,209.800873 740.182861,210.614014 
z"/>
<path fill="#F4F4F4" opacity="1.000000" stroke="none" 
	d="
M462.000000,209.048355 
	C493.951233,209.048355 525.402466,209.048355 557.494507,209.048355 
	C555.128174,239.759369 552.795654,270.032898 550.441589,300.584869 
	C507.940430,300.584869 465.880859,300.584869 423.017395,300.584869 
	C420.687042,270.402435 418.349854,240.131516 415.949951,209.048355 
	C431.350891,209.048355 446.425446,209.048355 462.000000,209.048355 
z"/>
<path fill="#F4F4F4" opacity="1.000000" stroke="none" 
	d="
M542.439941,404.430847 
	C542.148987,407.348145 541.923218,409.812408 541.669495,412.581909 
	C505.055817,412.581909 468.650635,412.581909 431.692383,412.581909 
	C429.625397,385.627625 427.556732,358.651459 425.461243,331.325256 
	C466.471191,331.325256 506.871674,331.325256 548.045715,331.325256 
	C546.188721,355.675323 544.346863,379.826569 542.439941,404.430847 
z"/>
<path fill="#F4F4F4" opacity="1.000000" stroke="none" 
	d="
M274.989929,352.048523 
	C272.370453,345.040924 269.876373,338.402954 267.103455,331.022766 
	C269.689392,331.022766 271.304535,331.022766 272.919647,331.022766 
	C312.046326,331.022552 351.173370,331.098785 390.299194,330.915680 
	C394.691101,330.895142 395.788788,332.150269 396.079346,336.431915 
	C397.689850,360.166992 399.674561,383.876678 401.526550,407.595428 
	C401.642334,409.078308 401.719086,410.564178 401.869110,412.910889 
	C400.078278,412.910889 398.515503,412.910828 396.952728,412.910828 
	C365.484894,412.910919 334.016602,412.832306 302.549835,413.015381 
	C298.808838,413.037140 297.417786,411.640289 296.228180,408.426819 
	C289.301697,389.716125 282.174622,371.079681 274.989929,352.048523 
z"/>
<path fill="#F4F4F4" opacity="1.000000" stroke="none" 
	d="
M573.964966,381.969879 
	C575.308838,364.918762 576.593933,348.331085 577.906189,331.393433 
	C619.541870,331.393433 660.938538,331.393433 702.856812,331.393433 
	C702.563782,332.747772 702.367737,334.127655 701.965088,335.444366 
	C694.562866,359.646637 687.070618,383.821655 679.786621,408.059357 
	C678.723999,411.595306 677.326111,413.040192 673.342468,413.016876 
	C641.023071,412.827667 608.702087,412.910187 576.381592,412.909973 
	C575.075378,412.909973 573.769165,412.910004 571.678772,412.910004 
	C572.439270,402.504639 573.172729,392.468964 573.964966,381.969879 
z"/>
<path fill="#F1F1F1" opacity="1.000000" stroke="none" 
	d="
M649.559082,629.646057 
	C636.377686,624.466736 628.911560,613.013794 630.221069,600.445007 
	C631.513123,588.043762 640.698120,578.103943 652.938110,575.861328 
	C663.607910,573.906311 674.299744,578.652222 680.450378,588.073425 
	C686.516602,597.365601 686.394165,609.449585 680.140259,618.688599 
	C673.908508,627.894897 662.947449,632.495544 652.372192,630.336853 
	C651.557068,630.170471 650.751160,629.959106 649.559082,629.646057 
z"/>
<path fill="#F2F2F2" opacity="1.000000" stroke="none" 
	d="
M302.253784,626.873779 
	C291.626404,619.309570 286.957672,608.316772 289.476746,597.349060 
	C292.070404,586.056702 300.605011,577.837280 311.818359,575.832458 
	C322.898651,573.851501 334.433624,579.428894 340.041473,589.479004 
	C345.814575,599.825256 344.447632,612.485046 336.574066,621.592651 
	C329.193329,630.130188 317.058258,633.147400 306.609833,629.003784 
	C305.224335,628.454285 303.915070,627.712708 302.253784,626.873779 
z"/>
</svg>