<svg version="1.1" id="Layer_1" xmlns="http://www.w3.org/2000/svg" xmlns:xlink="http://www.w3.org/1999/xlink" x="0px" y="0px"
	 width="100%" viewBox="0 0 225 225" enable-background="new 0 0 225 225" xml:space="preserve">
<path fill="#FFFFFF" opacity="1.000000" stroke="none" 
	d="
M110.000000,226.000000 
	C73.333336,226.000000 37.166672,226.000000 1.000005,226.000000 
	C1.000003,151.000000 1.000003,76.000015 1.000002,1.000015 
	C75.999992,1.000010 150.999985,1.000010 225.999969,1.000005 
	C225.999985,75.999985 225.999985,150.999969 226.000000,225.999969 
	C187.500000,226.000000 149.000000,226.000000 110.000000,226.000000 
M111.993225,89.959610 
	C111.405273,90.540680 110.826859,91.607155 110.227715,91.618942 
	C107.607475,91.670479 104.870163,91.847000 102.374954,91.203781 
	C84.454102,86.584145 68.205109,78.933136 55.719784,64.696236 
	C54.904949,63.767094 53.931732,62.976856 52.964832,62.057991 
	C45.681210,74.656342 48.553970,88.373848 61.648636,100.559029 
	C58.440865,99.804039 56.560493,99.266510 54.644142,98.940384 
	C53.102112,98.677963 51.516560,98.671265 49.950317,98.551102 
	C49.841408,100.259285 49.317993,102.064613 49.691788,103.659676 
	C51.891136,113.044815 57.627987,119.567413 66.359291,123.544769 
	C67.652641,124.133934 68.867905,124.894516 70.119293,125.575790 
	C69.975235,125.837555 69.831169,126.099312 69.687111,126.361069 
	C66.253418,126.361069 62.819725,126.361069 59.111874,126.361069 
	C63.639553,138.293243 72.549088,144.179306 85.131805,146.139481 
	C75.513924,153.364777 65.456284,156.818100 54.482136,157.974258 
	C52.568714,158.175858 50.716389,158.957382 48.835846,159.471069 
	C50.199280,161.570801 51.538704,162.448959 52.978661,163.107239 
	C70.566994,171.147766 88.813873,172.833130 107.578041,168.377579 
	C144.039673,159.719742 169.785477,126.210777 169.139496,88.709045 
	C169.108078,86.885338 170.464874,84.753265 171.747879,83.255234 
	C173.899506,80.742989 176.624573,78.729080 178.872116,76.287994 
	C179.687531,75.402359 179.825882,73.893311 180.406815,72.302757 
	C176.552902,72.719879 173.501678,73.050125 170.565536,73.367912 
	C171.872604,71.684235 173.147217,70.389587 174.001587,68.860191 
	C175.272079,66.585861 176.245453,64.145569 177.345276,61.775906 
	C175.068588,62.142170 172.787018,62.481506 170.518280,62.891773 
	C169.872696,63.008522 169.251236,63.301079 168.641159,63.564911 
	C164.532257,65.341827 161.185165,65.091362 157.370605,61.890736 
	C151.715439,57.145737 144.675446,55.644489 137.209595,56.471867 
	C123.470116,57.994484 109.869858,70.251541 111.993225,89.959610 
z"/>
<path fill="#1EA1F2" opacity="1.000000" stroke="none" 
	d="
M111.968117,89.518768 
	C109.869858,70.251541 123.470116,57.994484 137.209595,56.471867 
	C144.675446,55.644489 151.715439,57.145737 157.370605,61.890736 
	C161.185165,65.091362 164.532257,65.341827 168.641159,63.564911 
	C169.251236,63.301079 169.872696,63.008522 170.518280,62.891773 
	C172.787018,62.481506 175.068588,62.142170 177.345276,61.775909 
	C176.245453,64.145569 175.272079,66.585861 174.001587,68.860191 
	C173.147217,70.389587 171.872604,71.684235 170.565536,73.367912 
	C173.501678,73.050125 176.552902,72.719879 180.406815,72.302757 
	C179.825882,73.893311 179.687531,75.402359 178.872116,76.287994 
	C176.624573,78.729080 173.899506,80.742989 171.747879,83.255234 
	C170.464874,84.753265 169.108078,86.885338 169.139496,88.709045 
	C169.785477,126.210777 144.039673,159.719742 107.578041,168.377579 
	C88.813873,172.833130 70.566994,171.147766 52.978661,163.107239 
	C51.538704,162.448959 50.199280,161.570801 48.835846,159.471069 
	C50.716389,158.957382 52.568714,158.175858 54.482136,157.974258 
	C65.456284,156.818100 75.513924,153.364777 85.131805,146.139481 
	C72.549088,144.179306 63.639553,138.293243 59.111874,126.361069 
	C62.819725,126.361069 66.253418,126.361069 69.687111,126.361069 
	C69.831169,126.099312 69.975235,125.837555 70.119293,125.575790 
	C68.867905,124.894516 67.652641,124.133934 66.359291,123.544769 
	C57.627987,119.567413 51.891136,113.044815 49.691788,103.659676 
	C49.317993,102.064613 49.841408,100.259285 49.950317,98.551102 
	C51.516560,98.671265 53.102112,98.677963 54.644142,98.940384 
	C56.560493,99.266510 58.440865,99.804039 61.648636,100.559029 
	C48.553970,88.373848 45.681210,74.656342 52.964832,62.057991 
	C53.931732,62.976856 54.904949,63.767094 55.719784,64.696236 
	C68.205109,78.933136 84.454102,86.584145 102.374954,91.203781 
	C104.870163,91.847000 107.607475,91.670479 110.227715,91.618942 
	C110.826859,91.607155 111.405273,90.540680 111.968117,89.518768 
z"/>
</svg>
